<svg width="111" height="44" viewBox="0 0 111 44" fill="none" xmlns="http://www.w3.org/2000/svg">
<path fill-rule="evenodd" clip-rule="evenodd" d="M90.4806 12.4042C89.6714 12.6822 87.3028 13.3593 86.2238 13.6206C85.9788 13.6803 85.9602 13.7056 85.9602 13.9773V14.2693L86.4122 14.2377C88.5034 14.0921 88.4401 13.9615 88.4686 18.4836L88.4907 22.0113L88.0441 21.6397C86.3558 20.2344 83.7299 19.9984 81.6116 21.0616C77.3191 23.216 75.3003 29.4731 77.4389 33.9934C79.5214 38.3949 84.5033 39.5386 87.8393 36.3811L88.4839 35.7708L88.4853 36.8526C88.4866 38.3267 88.2977 38.2679 90.4548 37.4669C91.4633 37.0926 92.7209 36.6397 93.2493 36.4611L94.2099 36.1356V35.8563V35.5769L93.2868 35.5494C91.9438 35.5096 91.735 35.3446 91.5713 34.196C91.4936 33.6517 91.5189 22.3621 91.6138 15.1255C91.6464 12.6483 91.6351 12.0566 91.5569 12.0616C91.5035 12.0647 91.0189 12.2193 90.4806 12.4042ZM6.36391 20.2764C3.09704 20.6498 0.490152 23.1884 1.38292 25.1268C2.21422 26.9313 4.71307 26.2428 4.52683 24.2602C4.37947 22.6957 4.37902 22.7215 4.53723 22.3639C5.18861 20.8916 8.51515 20.7018 9.50239 22.0809C9.91691 22.6595 9.99963 23.1098 10.0335 24.9762L10.0643 26.6334L8.0821 27.4136C4.54356 28.8068 2.92165 29.6995 1.88152 30.8269C-1.27595 34.2475 1.38247 39.1335 5.78666 38.0044C7.71233 37.5112 10.5525 35.3663 10.8499 34.181C10.9236 33.8877 10.976 33.9247 11.2387 34.4577C12.7774 37.5781 15.6157 38.9636 19.0467 38.2693C21.4443 37.7842 23.751 35.7921 25.0212 33.1102C25.4606 32.183 25.4719 32.0316 25.1135 31.905L24.84 31.8083L24.42 32.4226C22.7529 34.8623 21.1374 35.7953 18.7624 35.6913C16.0185 35.571 14.1344 33.8045 13.6277 30.8767C13.5074 30.1832 13.2968 27.5908 13.3515 27.481C13.3668 27.4502 15.9398 27.4244 19.0693 27.4244H24.7591L24.7116 26.9159C24.5389 25.0585 24.1334 23.9207 23.2737 22.8783C20.7739 19.8474 15.9796 19.6621 13.0061 22.4814L12.6793 22.7911L12.4827 22.5275C11.1261 20.7086 9.10053 19.9631 6.36391 20.2764ZM100.277 20.459C96.7246 21.0548 94.2551 24.7787 96.6188 25.9743C97.8791 26.6117 99.0173 25.8749 98.9671 24.4537C98.902 22.6035 98.9038 22.5755 99.1068 22.2758C99.9331 21.0571 102.655 20.8871 103.727 21.9874C104.305 22.5809 104.476 23.4095 104.44 25.4549L104.418 26.6872L103.1 27.1971C100.451 28.2223 98.6679 29.054 97.6268 29.7502C92.4198 33.2336 95.7717 40.1036 101.388 37.4597C102.099 37.1251 103.03 36.5077 103.869 35.8151C104.563 35.2424 104.502 35.2533 104.568 35.6931C104.971 38.3845 107.653 38.8433 109.892 36.6044L110.332 36.1641V35.6746V35.185L109.966 35.4476C109.016 36.1302 108.137 36.1103 107.756 35.3975L107.582 35.0715L107.538 29.9861C107.485 23.8484 107.434 23.4547 106.523 22.1781C105.456 20.6832 102.988 20.0038 100.277 20.459ZM68.7449 20.4889C67.3693 20.6778 66.171 21.3486 64.4777 22.8783L63.7725 23.5148V22.0393C63.7725 20.8112 63.7539 20.5567 63.6622 20.5214C63.6012 20.4984 62.6605 20.7678 61.5715 21.1204C60.4821 21.4729 59.2946 21.8563 58.9321 21.9715L58.273 22.1817V22.4679V22.7536L58.9321 22.7554C59.988 22.7581 60.4387 23.0469 60.6091 23.8317C60.7682 24.5635 60.6783 35.7532 60.5106 36.1252C60.2439 36.717 59.7751 37.0189 58.815 37.2178C58.3471 37.315 58.3408 37.3195 58.363 37.5501L58.386 37.7838L62.3978 37.8032L66.4097 37.8226V37.5681V37.3136L65.945 37.2608C64.941 37.1473 64.4505 36.8688 64.1585 36.2459L63.961 35.8251L63.9384 30.2935L63.9162 24.762L64.3529 24.3172C66.477 22.156 69.1603 21.9254 70.0494 23.8276C70.5169 24.8284 70.5155 24.8099 70.5155 30.1746C70.5155 36.6754 70.5114 36.6907 68.7878 37.1464L68.1423 37.3168V37.5699V37.8226L72.0411 37.8032L75.9399 37.7838L75.963 37.5492C75.9856 37.3155 75.9833 37.3141 75.5485 37.2648C74.9699 37.1993 74.3885 36.9217 74.1354 36.5899C73.6802 35.9932 73.6892 36.1085 73.6391 30.0991C73.5884 23.9899 73.593 24.045 73.0691 22.9095C72.2599 21.1561 70.6109 20.233 68.7449 20.4889ZM49.4203 20.5973C43.3599 21.5973 40.5984 29.7438 44.4113 35.3721C46.8067 38.908 51.8238 39.2719 55.0807 36.1465C56.28 34.9956 57.821 32.6174 57.821 31.9177C57.821 31.8829 57.2067 31.7039 57.1859 31.7324C57.1764 31.7459 56.9947 32.0108 56.7822 32.3218C55.2335 34.5874 53.6451 35.5643 51.5142 35.5597C47.9765 35.553 45.39 32.1975 45.39 27.6161V27.4244H51.2398H57.09L57.0444 26.6524C56.8084 22.6672 53.3793 19.9442 49.4203 20.5973ZM85.9118 21.6709C87.1608 22.1352 87.8854 22.8675 88.318 24.102C88.5359 24.724 88.5472 33.9519 88.3302 34.3994C87.1766 36.7825 83.2435 36.7441 81.523 34.3334C78.6305 30.2795 79.591 23.0478 83.2023 21.694C84.0748 21.3667 85.0715 21.3581 85.9118 21.6709ZM18.5128 22.0701C19.8047 22.5682 20.6645 24.0455 20.7744 25.9553L20.7915 26.2568L17.1165 26.2763C12.8886 26.2989 13.3338 26.3988 13.3334 25.4283C13.332 22.9082 16.075 21.1299 18.5128 22.0701ZM50.3651 21.9254C51.9924 22.2342 52.9182 23.499 53.1908 25.7858L53.2423 26.2193H49.3539C47.2149 26.2193 45.465 26.1917 45.465 26.1583C45.465 25.8708 45.8447 24.6887 46.1223 24.1101C46.9581 22.3693 48.5054 21.5728 50.3651 21.9254ZM10.0557 30.7401C10.0557 34.6801 10.0331 34.7461 8.44734 35.4888C4.85772 37.1699 2.16947 33.3705 4.88575 30.4554C5.85492 29.4152 9.05036 27.617 9.99918 27.5777C10.0304 27.5763 10.0557 28.9993 10.0557 30.7401ZM104.341 34.1042C104.118 34.6927 103.283 35.3279 102.309 35.6483C100.63 36.2003 99.0146 35.5493 98.5255 34.1232C97.6616 31.6026 99.4101 29.4631 103.627 27.8819L104.418 27.5854L104.439 30.6881C104.457 33.361 104.443 33.8343 104.341 34.1042ZM51.0404 41.4376V43.0197H51.304H51.5675L51.5702 42.6621C51.5747 41.9909 51.7334 41.9488 52.0964 42.5234C52.4065 43.0147 52.4137 43.0197 52.7473 43.0197H53.0845L52.9137 42.7751C52.8197 42.6404 52.6104 42.3529 52.4485 42.1364L52.1547 41.7427L52.5371 41.3074L52.9196 40.8725L52.6402 40.8481C52.3437 40.8224 52.3531 40.8151 51.8152 41.4783L51.5729 41.7766L51.5702 40.816L51.5675 39.8554H51.304H51.0404V41.4376ZM82.306 40.4169V40.9778L82.0271 40.8617C81.0344 40.4467 80.2627 41.971 81.0615 42.7697C81.3671 43.0753 81.8575 43.1196 82.1744 42.8705C82.3638 42.7214 82.3647 42.7214 82.4036 42.8705C82.4325 42.9804 82.5067 43.0197 82.6861 43.0197H82.9293L82.8814 42.6703C82.8552 42.4782 82.8335 41.7662 82.8335 41.0881V39.8554H82.5699H82.306V40.4169ZM57.2211 40.076C57.1226 40.26 57.1895 40.439 57.3793 40.4991C57.661 40.5886 57.8662 40.2324 57.6551 40.0213C57.5195 39.8857 57.3088 39.9124 57.2211 40.076ZM83.5147 40.0403C83.3949 40.1845 83.4808 40.4386 83.6698 40.4982C83.9536 40.5886 84.1611 40.2338 83.9487 40.0213C83.8257 39.8988 83.625 39.9074 83.5147 40.0403ZM43.552 40.8915C43.5244 41.3784 43.4815 42.0591 43.4557 42.404L43.4092 43.031L43.665 43.0066L43.9209 42.9822L43.9674 42.1156C43.9927 41.6392 44.0212 41.0967 44.0298 40.9105C44.0483 40.5163 44.0235 40.4562 44.4556 41.9497L44.7449 42.9514L44.9705 42.9293C45.1906 42.9076 45.2056 42.8782 45.5925 41.7391L45.9889 40.5715L46.0002 40.9855C46.0061 41.2138 46.0323 41.7558 46.0581 42.1911L46.1056 42.9822L46.3619 43.0066L46.6177 43.031L46.5671 42.065C46.5395 41.5334 46.4957 40.8531 46.4704 40.5525L46.4238 40.0064H46.0721H45.72L45.4045 40.9851C45.2304 41.5235 45.0885 42.0153 45.0885 42.0777C45.0885 42.14 45.0546 42.1911 45.013 42.1911C44.9718 42.1911 44.938 42.1278 44.938 42.0501C44.938 41.9723 44.801 41.481 44.6337 40.9575L44.3295 40.0064H43.9661H43.6022L43.552 40.8915ZM71.9593 40.0566C71.9317 40.0842 71.9091 40.7663 71.9091 41.5718V43.0373L72.6505 43.0075C73.9153 42.9569 74.5065 42.112 73.6712 41.5492L73.4411 41.3942L73.6544 41.1984C74.0242 40.8599 73.9207 40.3093 73.4501 40.1131C73.1916 40.0046 72.0542 39.9617 71.9593 40.0566ZM98.2027 41.5131V43.0197H99.1068H100.011V42.7937V42.5677H99.3703H98.7302V42.1156V41.6636H99.2953H99.8603V41.4376V41.2115H99.2953H98.7302V40.835V40.4585H99.3328H99.9354V40.2324V40.0064H99.0693H98.2027V41.5131ZM55.8808 40.3608C55.7511 40.3857 55.7113 40.4453 55.7113 40.6144C55.7113 40.7848 55.677 40.835 55.5608 40.835C55.4501 40.835 55.4098 40.8852 55.4098 41.0235C55.4098 41.1614 55.4501 41.2115 55.5608 41.2115C55.7005 41.2115 55.7113 41.2617 55.7113 41.9172C55.7113 42.8312 55.8393 43.0396 56.379 43.0048C56.8328 42.9754 56.925 42.7209 56.5241 42.6029L56.2764 42.5301L56.2547 41.8711L56.233 41.2115H56.4997C56.7338 41.2115 56.7659 41.189 56.7659 41.0235C56.7659 40.8585 56.7334 40.835 56.5024 40.835C56.2511 40.835 56.2389 40.8224 56.2389 40.5715C56.2389 40.3034 56.2239 40.2948 55.8808 40.3608ZM107.789 40.3608C107.66 40.3857 107.62 40.4453 107.62 40.6144C107.62 40.7848 107.586 40.835 107.469 40.835C107.359 40.835 107.319 40.8852 107.319 41.0235C107.319 41.1614 107.359 41.2115 107.469 41.2115C107.61 41.2115 107.62 41.2617 107.62 41.9172C107.62 42.8072 107.744 43.0197 108.261 43.0197C108.748 43.0197 108.815 42.7575 108.372 42.5903L108.147 42.5057V41.8584V41.2115H108.411C108.642 41.2115 108.675 41.1885 108.675 41.0235C108.675 40.8585 108.642 40.835 108.411 40.835C108.16 40.835 108.147 40.8224 108.147 40.5715C108.147 40.3034 108.133 40.2948 107.789 40.3608ZM73.2029 40.5077C73.5288 40.8025 73.2734 41.2115 72.7639 41.2115H72.4367V40.7975V40.383H72.7508C72.9375 40.383 73.121 40.4336 73.2029 40.5077ZM47.6059 40.8305C47.2723 40.9105 47.2072 40.9665 47.2515 41.1356C47.2827 41.2549 47.3306 41.2753 47.4879 41.236C47.7962 41.1587 48.0832 41.1776 48.2111 41.2839C48.382 41.4258 48.354 41.5885 48.1587 41.589C47.2718 41.5908 46.7244 42.3272 47.232 42.8348C47.4535 43.0563 47.93 43.087 48.2179 42.8981C48.3888 42.786 48.4033 42.786 48.4033 42.8981C48.4033 42.9831 48.4715 43.0197 48.6293 43.0197H48.8553V42.1703C48.8553 40.9557 48.5321 40.6094 47.6059 40.8305ZM50.3244 40.8472C50.2417 40.8929 50.1151 41.0018 50.0437 41.0895L49.9135 41.2495L49.9117 41.042C49.9103 40.8626 49.8801 40.835 49.6843 40.835H49.4583V41.9276V43.0197H49.7218H49.9854V42.3385C49.9854 41.6008 50.1418 41.287 50.5093 41.287C50.6354 41.287 50.6634 41.2387 50.6634 41.0235C50.6634 40.7442 50.5857 40.7035 50.3244 40.8472ZM53.782 40.901C53.0511 41.2391 52.9471 42.4054 53.608 42.857C53.8611 43.0296 54.8457 43.0816 54.9976 42.9302C55.1879 42.7394 54.9406 42.5835 54.5098 42.6228C54.1066 42.6594 54.0492 42.6454 53.872 42.4682C53.5063 42.1025 53.5886 42.0406 54.4402 42.0406H55.2032L55.1553 41.7413C55.0247 40.9241 54.4682 40.5837 53.782 40.901ZM59.2539 40.8436C59.1509 40.8847 59.0071 40.9724 58.9334 41.0389C58.81 41.151 58.8001 41.1478 58.8001 40.9973C58.8001 40.8671 58.7553 40.835 58.5741 40.835H58.348V41.9276V43.0197H58.612H58.8756V42.2693C58.8756 41.4796 58.9899 41.2115 59.3276 41.2115C59.6635 41.2115 59.7408 41.3888 59.7679 42.2228L59.7932 43.0197H60.0504H60.3072V42.225C60.3072 41.0497 59.941 40.5697 59.2539 40.8436ZM61.3672 40.8883C60.2154 41.4896 60.8831 43.4591 62.0439 42.8845L62.3594 42.7286L62.3151 43.0007C62.2383 43.4731 61.9679 43.5816 61.1764 43.4573C60.9775 43.4261 60.9251 43.6937 61.1041 43.8248C61.2854 43.9572 61.9802 43.9509 62.3083 43.8139C62.7577 43.6259 62.8648 43.267 62.8671 41.9461L62.8684 40.835H62.6424C62.4919 40.835 62.4164 40.8725 62.4164 40.948C62.4164 41.0909 62.349 41.0913 62.1917 40.9489C61.9883 40.7649 61.6515 40.7401 61.3672 40.8883ZM75.3374 40.8472C75.2542 40.8929 75.1281 41.0018 75.0562 41.0895L74.926 41.2495L74.9247 41.042C74.9229 40.8626 74.8926 40.835 74.6968 40.835H74.4708V41.9276V43.0197H74.7344H74.9983V42.3385C74.9983 41.6008 75.1547 41.287 75.5223 41.287C75.6479 41.287 75.6764 41.2387 75.6764 41.0235C75.6764 40.7442 75.5982 40.7035 75.3374 40.8472ZM76.4417 40.8323C76.1289 40.9091 76.034 40.9995 76.0959 41.1609C76.1316 41.2531 76.1958 41.273 76.3418 41.2364C76.651 41.1587 76.938 41.1776 77.066 41.2839C77.2368 41.4258 77.2093 41.5885 77.0135 41.589C76.1447 41.5908 75.6217 42.2661 76.0584 42.8213C76.2428 43.0559 76.8634 43.1106 77.0325 42.9067C77.084 42.8448 77.1559 42.7937 77.1921 42.7937C77.2287 42.7937 77.2585 42.8448 77.2585 42.9067C77.2585 42.9822 77.3336 43.0197 77.4845 43.0197H77.7106V42.2336C77.7106 40.986 77.3657 40.6054 76.4417 40.8323ZM79.2186 40.8427C79.1159 40.8843 78.9717 40.9724 78.8985 41.0389C78.7747 41.151 78.7652 41.1478 78.7652 40.9973C78.7652 40.8671 78.7204 40.835 78.5391 40.835H78.3131V41.9276V43.0197H78.5699H78.8266L78.8524 42.2318C78.8795 41.4019 78.9613 41.2206 79.3112 41.2143C79.6376 41.2084 79.7447 41.4674 79.7447 42.2666V43.0197H80.0146H80.2844L80.2596 42.1174C80.2275 40.9792 79.8939 40.5706 79.2186 40.8427ZM85.5471 40.8436C85.4444 40.8847 85.3002 40.9724 85.227 41.0389C85.1032 41.151 85.0937 41.1478 85.0937 40.9973C85.0937 40.8671 85.0489 40.835 84.8676 40.835H84.6416V41.9276V43.0197H84.9052H85.1692V42.2666C85.1692 41.4651 85.274 41.2115 85.6067 41.2115C85.958 41.2115 86.0339 41.3806 86.061 42.2228L86.0868 43.0197H86.3436H86.6003V42.2639C86.6003 41.061 86.2355 40.5692 85.5471 40.8436ZM87.6608 40.8883C86.5185 41.4846 87.1721 43.4609 88.323 42.8918C88.6186 42.7453 88.6345 42.7444 88.6345 42.875C88.6345 43.3483 88.2317 43.6164 87.7164 43.4853C87.3584 43.3944 87.2784 43.4198 87.2784 43.6245C87.2784 43.8243 87.5035 43.9238 87.9541 43.9238C88.9504 43.9238 89.1579 43.5838 89.1602 41.9461L89.162 40.835H88.936C88.7854 40.835 88.71 40.8725 88.71 40.948C88.71 41.0909 88.6422 41.0913 88.4848 40.9489C88.2814 40.7649 87.9451 40.7401 87.6608 40.8883ZM103.299 40.8364C102.463 41.09 102.283 42.4569 103.027 42.8967C103.252 43.0296 104.113 43.0681 104.294 42.9532C104.566 42.7806 104.352 42.6201 103.837 42.6129C103.306 42.6052 103.134 42.5175 103.087 42.2286C103.064 42.088 103.11 42.0767 103.797 42.0564L104.531 42.0352V41.8091C104.531 41.1135 103.936 40.6433 103.299 40.8364ZM105.889 40.8427C105.786 40.8843 105.642 40.9724 105.569 41.0389C105.445 41.151 105.435 41.1478 105.435 40.9973C105.435 40.8671 105.391 40.835 105.209 40.835H104.983V41.9276V43.0197H105.247H105.511V42.2797C105.511 41.603 105.526 41.5253 105.685 41.3756C106.144 40.9444 106.415 41.2753 106.415 42.2666V43.0197H106.678H106.942V42.225C106.942 41.0411 106.579 40.5647 105.889 40.8427ZM109.505 40.8404C108.807 41.1315 108.87 41.7237 109.64 42.1111C110.149 42.367 110.073 42.6088 109.486 42.597C109.118 42.5894 109.048 42.6102 109.008 42.7381C108.873 43.1634 110.273 43.1038 110.436 42.6775C110.593 42.268 110.464 41.9963 110.003 41.7635C109.342 41.4299 109.417 41.014 110.103 41.2106C110.319 41.2726 110.497 41.0452 110.349 40.8965C110.25 40.7984 109.695 40.7613 109.505 40.8404ZM57.218 41.9276V43.0197H57.482H57.7455V41.9276V40.835H57.482H57.218V41.9276ZM83.5115 41.9321V43.0292L83.7565 43.0057L84.0011 42.9822L84.0223 41.9086L84.0431 40.835H83.7773H83.5115V41.9321ZM100.255 40.929C100.273 40.981 100.452 41.4724 100.652 42.0216L101.015 43.0197H101.264C101.56 43.0197 101.546 43.0409 101.999 41.8281C102.414 40.7188 102.407 40.821 102.071 40.8495L101.796 40.8725L101.566 41.6441C101.305 42.5193 101.307 42.5188 101.065 41.7016C100.815 40.8544 100.802 40.835 100.49 40.835C100.306 40.835 100.231 40.8648 100.255 40.929ZM54.5057 41.287C54.7887 41.5696 54.7055 41.6636 54.174 41.6636C53.726 41.6636 53.6943 41.6527 53.7314 41.5108C53.8223 41.1623 54.2558 41.0371 54.5057 41.287ZM103.853 41.287C104.137 41.5709 104.053 41.6636 103.512 41.6636H103.021L103.134 41.4444C103.31 41.1049 103.606 41.0398 103.853 41.287ZM62.1574 41.3187C62.2744 41.4046 62.3034 41.5171 62.3034 41.8896C62.3034 42.7123 61.5168 42.8782 61.322 42.0971C61.1719 41.4972 61.7125 40.9937 62.1574 41.3187ZM82.1685 41.3363C82.3715 41.5203 82.3629 42.2851 82.1554 42.4926C81.716 42.932 81.146 42.3159 81.3404 41.6116C81.448 41.2219 81.8824 41.0777 82.1685 41.3363ZM88.4505 41.3187C88.568 41.4046 88.5969 41.5171 88.5969 41.8896C88.5969 42.7747 87.7141 42.8642 87.607 41.99C87.5351 41.4014 88.0278 41.0095 88.4505 41.3187ZM73.2842 41.7987C73.6612 42.126 73.3073 42.6432 72.7052 42.6432H72.4367V42.1599C72.4367 41.8412 72.4687 41.6649 72.5307 41.6423C72.692 41.5845 73.1459 41.6785 73.2842 41.7987ZM48.3282 42.1857C48.3282 42.4836 48.1402 42.6567 47.8477 42.6282C47.3401 42.579 47.5909 41.9651 48.1189 41.9651C48.2997 41.9651 48.3282 41.9949 48.3282 42.1857ZM77.183 42.1857C77.183 42.4836 76.995 42.6567 76.7025 42.6282C76.1953 42.579 76.4462 41.9651 76.9737 41.9651C77.155 41.9651 77.183 41.9949 77.183 42.1857Z" fill="#1D2424"/>
<path fill-rule="evenodd" clip-rule="evenodd" d="M27.2151 6.46163C23.7033 9.9735 20.8301 12.8805 20.8301 12.9221C20.8301 12.9633 23.6938 15.8604 27.1934 19.36L33.5563 25.7229L34.0305 25.274C34.2909 25.0272 37.1825 22.1382 40.4557 18.8542L46.4072 12.8837L40.0037 6.47971L33.6001 0.0761719L27.2151 6.46163ZM34.7234 4.20868C34.7926 4.32079 29.931 9.27872 26.4435 12.6532L24.9373 14.1105L24.87 13.8755C24.7872 13.5884 25.445 12.8801 29.8473 8.51252C34.4825 3.91351 34.5205 3.88005 34.7234 4.20868ZM31.8955 4.91703C31.0787 5.82291 26.3282 10.5711 25.5078 11.302L24.8736 11.8671L24.9265 11.5357C25.002 11.0611 31.2618 4.62908 31.943 4.32621C32.5618 4.05138 32.5505 4.1906 31.8955 4.91703ZM36.4837 4.58433C36.6315 4.67835 34.0748 7.3422 29.4568 11.9055C25.765 15.5539 25.3347 15.9472 25.2583 15.741C25.2113 15.614 25.2379 15.5245 25.3663 15.3771C26.854 13.673 36.0759 4.51923 36.3024 4.5224C36.3494 4.5233 36.4308 4.55088 36.4837 4.58433ZM38.0075 5.27413C38.0992 5.3329 38.0179 5.44907 37.5753 5.89252C37.065 6.40422 37.0221 6.43089 36.9036 6.31246C36.7852 6.19403 36.8105 6.1547 37.2982 5.69588C37.8705 5.15751 37.8475 5.17152 38.0075 5.27413ZM39.0051 6.68313C38.3528 7.4326 38.1811 7.57228 38.0482 7.46199C37.8764 7.3196 37.8796 7.31508 38.582 6.67951C39.3609 5.97524 39.6194 5.9775 39.0051 6.68313ZM36.6496 6.81739C37.0894 7.26264 37.1138 7.39599 36.7178 7.19122C36.1989 6.92271 35.7984 7.04385 35.2225 7.64325L34.9612 7.91493L35.5394 8.49308C36.104 9.05813 36.1207 9.06807 36.2672 8.93563C36.5045 8.72091 36.5325 8.41985 36.3494 8.06094C36.0836 7.53974 36.2436 7.61794 37.0089 8.38278C37.7702 9.14447 37.852 9.3081 37.3398 9.04683C36.9258 8.83573 36.3503 8.94195 36.3503 9.22945C36.3503 9.35692 37.4339 10.398 37.5668 10.398C38.1259 10.398 38.5752 9.22583 38.3388 8.38233C38.2552 8.08399 38.4288 8.20016 38.7502 8.65808C39.1674 9.25295 39.2171 9.14853 37.8769 10.4911C36.8069 11.5629 36.2721 11.9932 36.6098 11.5113C36.8105 11.2243 36.7581 11.1461 35.5412 9.92784C34.3962 8.78148 34.12 8.58485 33.9771 8.81584C33.9514 8.85697 33.8736 8.89087 33.804 8.89087C33.7303 8.89087 34.1982 8.36968 34.9187 7.64777C36.3652 6.19945 36.1442 6.30568 36.6496 6.81739ZM40.4566 7.30965C40.5393 7.44345 39.5069 8.52653 39.3894 8.42889C39.2176 8.2865 39.2718 8.19067 39.7971 7.7079C40.331 7.21699 40.3807 7.18715 40.4566 7.30965ZM41.1283 9.064C39.3442 11.0774 31.3689 19.0535 29.7095 20.4842C29.4663 20.694 29.1928 20.7437 29.1928 20.5783C29.1928 20.3871 41.2635 8.48902 41.3327 8.61197C41.3941 8.72046 41.3539 8.80951 41.1283 9.064ZM33.8664 9.68329C34.2723 9.89304 34.4061 10.3378 34.2068 10.8147C34.0856 11.1045 34.1227 11.1285 34.4391 10.9635C35.1163 10.61 35.8983 11.0625 35.8983 11.8074C35.8983 12.3024 35.5873 12.7852 34.6972 13.6712C33.9288 14.4369 33.6589 14.6231 33.8578 14.2516C34.0183 13.9514 33.9238 13.8122 32.7914 12.6776C31.6238 11.5086 31.4141 11.3712 31.1682 11.6171C31.1189 11.6659 31.0547 11.6817 31.0249 11.6524C30.925 11.552 32.5948 9.94186 32.9976 9.75019C33.4397 9.53955 33.5689 9.5296 33.8664 9.68329ZM42.0749 10.3017C42.0785 10.5878 31.4087 21.2997 31.0366 21.3838C30.4006 21.5271 31.7382 20.0584 36.9637 14.8754C41.5826 10.294 42.0695 9.85823 42.0749 10.3017ZM32.3887 10.435C32.1554 10.6678 32.1835 10.727 32.8303 11.364L33.314 11.8404L33.5138 11.6031C34.073 10.9381 32.9994 9.82388 32.3887 10.435ZM33.7104 11.7486L33.4496 11.9692L34.0504 12.5772C34.7054 13.2399 34.8035 13.2801 35.0715 12.9949C35.745 12.278 34.4676 11.1081 33.7104 11.7486ZM42.4528 12.0687C42.4528 12.3431 42.4759 12.3178 39.2488 15.5964C34.8509 20.0638 33.0545 21.7739 32.7603 21.7739C32.6147 21.7739 32.5067 21.7432 32.5202 21.7061C32.6269 21.4163 42.2123 11.8291 42.395 11.8291C42.4266 11.8291 42.4528 11.9371 42.4528 12.0687ZM30.6628 12.1523C30.4721 12.4249 30.5132 12.4877 31.6225 13.6151C32.8371 14.8492 33.0306 14.9879 33.2959 14.8139C33.7055 14.5458 33.5183 14.8469 32.8737 15.4942C32.2237 16.1465 31.9055 16.3477 32.1758 15.935C32.2409 15.8355 32.2748 15.6931 32.2513 15.6185C32.1957 15.4431 30.0218 13.2711 30.0218 13.3909C30.0218 13.4406 30.2777 14.0956 30.59 14.846C31.3974 16.7834 31.4561 16.9416 31.3856 16.9855C31.3508 17.0067 30.5543 16.7201 29.6154 16.3481C28.677 15.9761 27.8846 15.6714 27.8552 15.6714C27.7671 15.6714 29.6634 17.5587 29.9025 17.7092C30.1027 17.8353 30.1412 17.8376 30.3423 17.7331C30.7275 17.5343 30.6687 17.6947 30.1737 18.1938C29.7212 18.6503 29.4324 18.7936 29.6819 18.4374C29.8799 18.1544 29.8211 18.0686 28.5925 16.8413L27.3887 15.6398L27.1175 15.7379C26.7111 15.8848 26.736 15.8265 27.3336 15.2329L27.881 14.6896L29.2696 15.2515C30.0331 15.5607 30.6723 15.7993 30.6899 15.7822C30.7071 15.7645 30.4662 15.1267 30.1543 14.3641L29.587 12.9782L30.1195 12.4457C30.6172 11.948 30.9209 11.7844 30.6628 12.1523ZM48.8188 12.9452C47.7823 14.0482 41.8579 20.3066 39.8911 22.3765C39.0829 23.2267 37.3068 25.1013 35.9439 26.5424L33.4659 29.1624L32.8552 28.577C32.0935 27.8465 27.89 23.7728 26.0425 21.9742C25.2827 21.2351 24.6458 20.6456 24.6272 20.6646C24.6082 20.6831 24.9965 21.6442 25.4902 22.7996C25.9838 23.9554 27.2766 26.9854 28.3633 29.534C31.9489 37.9419 32.1401 38.3858 32.1997 38.4468C32.2327 38.4798 32.7137 37.8194 33.2688 36.979C33.8239 36.1387 34.9223 34.4766 35.7098 33.2859C36.4972 32.0948 38.0735 29.7053 39.2131 27.9758C42.3737 23.1784 46.3457 17.1609 48.2542 14.2778C49.3852 12.5691 49.7157 12.0524 49.6727 12.0592C49.6587 12.0615 49.2745 12.4602 48.8188 12.9452ZM42.376 14.3989C42.3109 14.7547 42.3949 14.662 39.2506 17.843C36.2111 20.9182 35.4372 21.6315 35.0674 21.6993C34.6837 21.7694 34.6832 21.7712 35.2338 21.1808C37.3236 18.9401 42.2105 14.0952 42.3859 14.0906C42.4117 14.0902 42.4072 14.2285 42.376 14.3989ZM91.5963 14.7673C91.5963 14.9952 91.6108 15.0887 91.628 14.9748C91.6452 14.8609 91.6452 14.6742 91.628 14.5603C91.6108 14.4464 91.5963 14.5395 91.5963 14.7673ZM26.6953 16.5994C26.7586 16.6758 26.6935 16.7816 26.4155 17.0555C26.0932 17.3729 26.0426 17.3986 25.9535 17.2915C25.8672 17.1875 25.8988 17.1252 26.1827 16.8359C26.5434 16.4684 26.5746 16.4539 26.6953 16.5994ZM27.6527 18.0681C27.0664 18.635 26.8196 18.7796 26.8196 18.5568C26.8196 18.2905 28.0107 17.1758 28.1549 17.3069C28.2996 17.4371 28.2887 17.4533 27.6527 18.0681ZM28.7756 19.1959C28.1658 19.7714 27.9497 19.8984 27.9497 19.6801C27.9497 19.4057 29.1358 18.3014 29.2855 18.4365C29.4342 18.5703 29.4269 18.5807 28.7756 19.1959ZM84.4366 20.3965C84.5509 20.4142 84.7204 20.4137 84.8131 20.3956C84.9058 20.3776 84.8122 20.3635 84.6052 20.364C84.3977 20.3649 84.3222 20.3794 84.4366 20.3965ZM6.98652 21.1478C7.0593 21.1668 7.17773 21.1668 7.25051 21.1478C7.32284 21.1288 7.26362 21.1135 7.11852 21.1135C6.97341 21.1135 6.9142 21.1288 6.98652 21.1478ZM13.4366 26.2387C13.4678 26.2703 15.1358 26.287 17.1433 26.2762L20.7926 26.2567L17.0859 26.2192C15.0472 26.1984 13.405 26.207 13.4366 26.2387ZM97.2816 26.1971C97.3756 26.2152 97.5112 26.2143 97.5831 26.1957C97.655 26.1767 97.5786 26.1618 97.4127 26.1627C97.2468 26.1636 97.188 26.179 97.2816 26.1971ZM16.4418 27.4809C17.9439 27.4926 20.4016 27.4926 21.9037 27.4809C23.4058 27.4695 22.1772 27.4601 19.173 27.4601C16.1687 27.4601 14.9396 27.4695 16.4418 27.4809ZM91.5308 29.4585C91.5308 30.3911 91.5416 30.7726 91.5547 30.3061C91.5679 29.84 91.5679 29.0774 91.5547 28.6109C91.5416 28.1449 91.5308 28.5264 91.5308 29.4585ZM98.3005 32.8868C98.3014 33.0938 98.3159 33.1697 98.333 33.0549C98.3507 32.9405 98.3502 32.771 98.3321 32.6784C98.314 32.5857 98.3 32.6793 98.3005 32.8868ZM55.5194 33.8473L55.2979 34.0919L55.5429 33.8708C55.6776 33.7492 55.7879 33.6389 55.7879 33.6258C55.7879 33.5675 55.7255 33.6191 55.5194 33.8473ZM73.6605 35.0339C73.6605 35.1786 73.6763 35.2382 73.6953 35.1655C73.7138 35.0931 73.7138 34.9743 73.6953 34.9019C73.6763 34.8296 73.6605 34.8888 73.6605 35.0339ZM1.39258 36.7901C1.39258 36.8032 1.50287 36.9135 1.63758 37.0351L1.88258 37.2561L1.66109 37.0116C1.45496 36.7833 1.39258 36.7318 1.39258 36.7901ZM51.5979 40.7974C51.5979 41.3358 51.6102 41.5464 51.6246 41.2648C51.6391 40.9836 51.6391 40.5429 51.6246 40.2857C51.6097 40.0285 51.5979 40.2586 51.5979 40.7974ZM82.8657 41.2114C82.8657 41.9781 82.877 42.2918 82.8906 41.9085C82.9041 41.5252 82.9041 40.8982 82.8906 40.5149C82.877 40.1315 82.8657 40.4448 82.8657 41.2114ZM98.7516 40.9104C98.7516 41.0966 98.7665 41.173 98.7842 41.0799C98.8022 40.9863 98.8022 40.834 98.7842 40.7409C98.7665 40.6473 98.7516 40.7237 98.7516 40.9104ZM66.8704 40.8498C66.0523 41.2878 66.0491 42.4319 66.8655 42.8501C68.1614 43.5146 69.1636 41.7647 67.9861 40.8928C67.6719 40.66 67.2551 40.6441 66.8704 40.8498ZM93.1866 40.8236C92.316 41.23 92.3282 42.4939 93.206 42.8822C94.0283 43.2461 94.9093 42.6055 94.7918 41.7295C94.6856 40.9375 93.8959 40.4923 93.1866 40.8236ZM83.4674 41.9275C83.4674 42.549 83.4791 42.7931 83.4931 42.4699C83.5076 42.1472 83.5072 41.6386 83.4931 41.3398C83.4787 41.0415 83.4674 41.3059 83.4674 41.9275ZM99.8785 41.4375C99.8785 41.5826 99.8944 41.6418 99.9134 41.5695C99.9319 41.4971 99.9319 41.3783 99.9134 41.3059C99.8944 41.2331 99.8785 41.2924 99.8785 41.4375ZM54.0385 42.0961C54.2577 42.1114 54.5968 42.111 54.792 42.0956C54.9873 42.0803 54.8083 42.0676 54.3938 42.0681C53.9797 42.0681 53.8197 42.0807 54.0385 42.0961ZM103.498 42.0956C103.697 42.1115 104.002 42.111 104.177 42.0952C104.351 42.0798 104.19 42.0667 103.817 42.0672C103.444 42.0672 103.3 42.0803 103.498 42.0956ZM51.5903 42.6055C51.5907 42.8126 51.6056 42.8885 51.6228 42.7737C51.64 42.6593 51.6395 42.4898 51.6219 42.3971C51.6038 42.3045 51.5898 42.398 51.5903 42.6055ZM44.9765 42.9446L44.7505 43.002L44.953 43.011C45.0647 43.0155 45.1768 42.9857 45.2025 42.9446C45.2283 42.903 45.2387 42.8731 45.2261 42.8781C45.2129 42.8831 45.1008 42.9129 44.9765 42.9446Z" fill="#EF363B"/>
</svg>
